<?xml version="1.0" encoding="utf-8"?>
<!-- Generator: Adobe Illustrator 19.1.0, SVG Export Plug-In . SVG Version: 6.00 Build 0)  -->
<svg version="1.1" id="Layer_1" xmlns="http://www.w3.org/2000/svg" xmlns:xlink="http://www.w3.org/1999/xlink" x="0px" y="0px"
	 viewBox="0 0 160 160" style="enable-background:new 0 0 160 160;" xml:space="preserve">
<style type="text/css">
	.st0{fill:#C6C6C5;}
</style>
<circle class="st0" cx="80" cy="80" r="80"/>
<g>
	<path d="M26.2,55.4h10.6c4.9,0,7.3,2.2,7.3,6c0,4.2-2.9,5.3-3.7,5.6v0.1c1.3,0.2,3.3,1.2,3.3,4.7c0,2.6,0.4,4.9,1.2,5.8h-4.2
		c-0.6-1-0.6-2.2-0.6-3.3c0-4.1-0.8-5.9-4.4-5.9H30v9.1h-3.9V55.4z M30,65.5h6.4c2.5,0,3.8-1.2,3.8-3.5c0-2.9-1.8-3.4-3.8-3.4H30
		V65.5z"/>
	<path d="M49.3,70.5c0,2.5,1.4,4.7,4.3,4.7c2.1,0,3.3-0.9,3.9-2.7h3.3c-0.7,3.5-3.8,5.5-7.3,5.5c-5.1,0-7.8-3.5-7.8-8.4
		c0-4.6,3-8.5,7.8-8.5c5.1,0,8.2,4.6,7.6,9.4H49.3z M57.6,68.2c-0.2-2.2-1.6-4.2-4-4.2c-2.4,0-4.1,1.9-4.2,4.2H57.6z"/>
	<path d="M63.6,61.5h3.3v2.2H67c1-1.9,2.9-2.6,5-2.6c5.1,0,7.5,3.8,7.5,8.5c0,4.3-2.2,8.4-6.9,8.4c-2,0-4.3-0.7-5.4-2.5h-0.1v8h-3.5
		V61.5z M71.5,63.9c-3,0-4.5,2.2-4.5,5.7c0,3.2,1.6,5.6,4.5,5.6c3.2,0,4.4-2.9,4.4-5.6C75.9,66.7,74.4,63.9,71.5,63.9z"/>
	<path d="M81.9,55.4h3.5v22.1h-3.5V55.4z"/>
	<path d="M102.1,74c0,0.9,0.2,1.2,0.8,1.2h0.4c0.2,0,0.3,0,0.5-0.1v2.4c-0.5,0.2-1.6,0.4-2.2,0.4c-1.5,0-2.4-0.5-2.7-2
		c-1.4,1.4-3.7,2-5.5,2c-2.9,0-5.5-1.6-5.5-4.7c0-4,3.2-4.7,6.2-5c2.6-0.5,4.8-0.2,4.8-2.3c0-1.9-1.9-2.2-3.3-2.2
		c-2,0-3.4,0.8-3.5,2.5h-3.5c0.2-4.1,3.7-5.3,7.3-5.3c3.1,0,6.4,1.3,6.4,4.7V74z M98.5,69.5c-1.1,0.7-2.8,0.7-4.3,1
		c-1.5,0.2-2.9,0.8-2.9,2.7c0,1.6,2,2,3.3,2c1.5,0,4-0.8,4-3V69.5z"/>
	<path d="M116.6,66.9c-0.3-2-1.7-3-3.7-3c-1.8,0-4.4,1-4.4,5.8c0,2.7,1.2,5.5,4.2,5.5c2.1,0,3.5-1.3,3.8-3.7h3.5
		c-0.7,4.2-3.2,6.4-7.3,6.4c-5,0-7.8-3.6-7.8-8.3c0-4.8,2.6-8.6,7.9-8.6c3.7,0,6.9,1.9,7.2,5.8H116.6z"/>
	<path d="M125.4,70.5c0,2.5,1.4,4.7,4.3,4.7c2.1,0,3.3-0.9,3.9-2.7h3.3c-0.7,3.5-3.8,5.5-7.3,5.5c-5.1,0-7.8-3.5-7.8-8.4
		c0-4.6,3-8.5,7.8-8.5c5.1,0,8.2,4.6,7.6,9.4H125.4z M133.6,68.2c-0.2-2.2-1.6-4.2-4-4.2c-2.4,0-4.1,1.9-4.2,4.2H133.6z"/>
	<path d="M57.1,98.7h3.3v2.2h0.1c1.1-1.6,2.4-2.7,4.9-2.7c2,0,3.8,0.8,4.5,2.7c1.2-1.6,2.7-2.7,5-2.7c3.4,0,5.4,1.5,5.4,5.4v11.1
		h-3.5v-9.4c0-2.6-0.2-4.3-2.9-4.3c-2.4,0-3.4,1.6-3.4,4.3v9.4H67v-10.3c0-2.2-0.7-3.4-2.8-3.4c-1.8,0-3.5,1.5-3.5,4.2v9.5h-3.5
		V98.7z"/>
	<path d="M86.2,107.7c0,2.5,1.4,4.7,4.3,4.7c2.1,0,3.3-0.9,3.9-2.7h3.3c-0.7,3.5-3.8,5.5-7.3,5.5c-5.1,0-7.8-3.5-7.8-8.4
		c0-4.6,3-8.5,7.8-8.5c5.1,0,8.2,4.6,7.6,9.4H86.2z M94.5,105.4c-0.2-2.2-1.6-4.2-4-4.2c-2.5,0-4.1,1.9-4.2,4.2H94.5z"/>
	<path d="M100.8,110.9h4.2v3.9h-4.2V110.9z M101,92.6h3.9V99l-1,9.6H102l-1-9.6V92.6z"/>
</g>
</svg>
